<svg xmlns="http://www.w3.org/2000/svg" width="66" height="47" viewBox="0 0 66 47" fill="none">
<path d="M49.0002 0.40625L43.2956 37.3732C42.4853 42.6179 37.9738 46.4863 32.668 46.4863L38.3725 9.51937C39.1796 4.27466 43.6944 0.40625 49.0002 0.40625Z" fill="#201E1E"/>
<path d="M16.3322 0.40625L9.21923 46.4863H0L5.70454 9.51937C6.51488 4.27466 11.0264 0.40625 16.3322 0.40625Z" fill="#201E1E"/>
<path d="M59.6274 9.51937L65.332 46.4863H56.1095L48.9998 0.40625C54.3056 0.40625 58.8171 4.27466 59.6274 9.51937Z" fill="#201E1E"/>
<path d="M26.96 9.51937L32.6645 46.4863C27.3587 46.4863 22.8472 42.6179 22.0368 37.3732L16.3323 0.40625C21.6381 0.40625 26.1496 4.27466 26.96 9.51937Z" fill="#201E1E"/>
</svg>